<?xml version="1.0" encoding="utf-8"?>
<!-- Generator: Adobe Illustrator 15.0.2, SVG Export Plug-In  -->
<!DOCTYPE svg PUBLIC "-//W3C//DTD SVG 1.1//EN" "http://www.w3.org/Graphics/SVG/1.1/DTD/svg11.dtd" [
	<!ENTITY ns_flows "http://ns.adobe.com/Flows/1.0/">
]>
<svg version="1.1"
	 xmlns="http://www.w3.org/2000/svg" xmlns:xlink="http://www.w3.org/1999/xlink" xmlns:a="http://ns.adobe.com/AdobeSVGViewerExtensions/3.0/"
	 x="0px" y="0px" width="339px" height="141px" viewBox="0 0 339 141" enable-background="new 0 0 339 141" xml:space="preserve">
<defs>
</defs>
<linearGradient id="SVGID_1_" gradientUnits="userSpaceOnUse" x1="34.76514" y1="136.23975" x2="422.92285" y2="88.22024" gradientTransform="matrix(1 0 0 -1 -20.8999 182.26074)">
	<stop  offset="0" style="stop-color:#5800FF"/>
	<stop  offset="1" style="stop-color:#2560FF"/>
</linearGradient>
<path fill="url(#SVGID_1_)" d="M65.41406,36.39502c0,10.6543-4.21875,17.53955-12.65332,20.64697l16.84082,23.78271H51.33545
	L36.58594,59.61035H26.31006v21.21436H11.47021V14.32422h25.21436c10.33496,0,17.70801,1.74268,22.11914,5.22998
	C63.21191,23.04297,65.41406,28.65918,65.41406,36.39502z M47.53076,44.29053c1.83838-1.64746,2.75879-4.2627,2.75879-7.84863
	c0-3.58252-0.9502-6.03955-2.854-7.37305c-1.90576-1.33008-5.23682-1.99756-9.9917-1.99756H26.31006v19.69482h10.84961
	C42.2334,46.76611,45.69238,45.94238,47.53076,44.29053z"/>
<linearGradient id="SVGID_2_" gradientUnits="userSpaceOnUse" x1="34.89404" y1="137.27295" x2="423.03946" y2="89.25496" gradientTransform="matrix(1 0 0 -1 -20.8999 182.26074)">
	<stop  offset="0" style="stop-color:#5800FF"/>
	<stop  offset="1" style="stop-color:#2560FF"/>
</linearGradient>
<path fill="url(#SVGID_2_)" d="M117.21826,73.40332c-5.76953,5.45801-12.54541,8.18262-20.31543,8.18262
	c-7.76709,0-14.18994-2.3916-19.26514-7.18262c-5.07373-4.78906-7.60938-11.21045-7.60938-19.26514
	s2.58545-14.45996,7.75293-19.21973c5.1709-4.75488,11.2749-7.13379,18.31348-7.13379c7.04004,0,13.01758,2.12549,17.93506,6.37402
	c4.91113,4.24854,7.37158,10.0835,7.37158,17.5083v7.60938H84.10742c0.44043,2.79004,1.90381,5.07373,4.38135,6.84912
	c2.46631,1.77734,5.26123,2.66211,8.36572,2.66211c5.0127,0,9.13477-1.67725,12.37305-5.04102L117.21826,73.40332z
	 M103.51758,43.05566c-1.9707-1.64746-4.36377-2.47461-7.18555-2.47461c-2.81982,0-5.40674,0.85498-7.74951,2.56982
	c-2.35107,1.71143-3.71387,4.02637-4.09229,6.94482h22.45068C106.625,47.04932,105.48242,44.70459,103.51758,43.05566z"/>
<linearGradient id="SVGID_3_" gradientUnits="userSpaceOnUse" x1="35.71533" y1="143.90576" x2="423.85901" y2="95.88799" gradientTransform="matrix(1 0 0 -1 -20.8999 182.26074)">
	<stop  offset="0" style="stop-color:#5800FF"/>
	<stop  offset="1" style="stop-color:#2560FF"/>
</linearGradient>
<path fill="url(#SVGID_3_)" d="M151.33154,68.92969c4.75781,0,9.0376-2.37598,12.84717-7.13086l8.4624,9.5127
	c-6.59619,6.85107-13.72852,10.27441-21.40186,10.27441c-7.67969,0-14.16504-2.42432-19.45605-7.28076
	c-5.29736-4.85059-7.94678-11.19043-7.94678-19.02441c0-7.83301,2.67627-14.20557,8.04395-19.12158
	c5.35352-4.91455,11.71533-7.37305,19.07275-7.37305c3.67969,0,7.4043,0.75977,11.17627,2.28369
	c3.7749,1.52246,7.09033,3.77344,9.94287,6.75391l-7.41846,9.70215c-1.65234-1.96484-3.66406-3.48535-6.04004-4.56396
	c-2.37891-1.08008-4.74365-1.62109-7.08838-1.62109c-3.74512,0-6.9624,1.22559-9.65869,3.66699
	c-2.69629,2.43994-4.04492,5.8335-4.04492,10.17725c0,4.3457,1.34863,7.72168,4.04492,10.13037
	C144.56152,67.729,147.71289,68.92969,151.33154,68.92969z"/>
<linearGradient id="SVGID_4_" gradientUnits="userSpaceOnUse" x1="36.4502" y1="149.84717" x2="424.5957" y2="101.82917" gradientTransform="matrix(1 0 0 -1 -20.8999 182.26074)">
	<stop  offset="0" style="stop-color:#5800FF"/>
	<stop  offset="1" style="stop-color:#2560FF"/>
</linearGradient>
<path fill="url(#SVGID_4_)" d="M226.69141,55.23193c0,7.41992-2.56787,13.6709-7.70264,18.7417
	c-5.13965,5.07861-11.59521,7.6123-19.36084,7.6123c-7.77344,0-14.22412-2.53369-19.36182-7.6123
	c-5.13672-5.0708-7.70947-11.32178-7.70947-18.7417c0-7.41846,2.57275-13.68164,7.70947-18.79004
	c5.1377-5.10498,11.58838-7.65723,19.36182-7.65723c7.76563,0,14.22119,2.55225,19.36084,7.65723
	C224.12354,41.55029,226.69141,47.81348,226.69141,55.23193z M186.92139,55.23193c0,4.1875,1.18799,7.59668,3.56738,10.22754
	c2.38037,2.63232,5.42236,3.94678,9.13916,3.94678c3.70801,0,6.74951-1.31445,9.13184-3.94678
	c2.37256-2.63086,3.56689-6.04004,3.56689-10.22754c0-4.18408-1.19434-7.60889-3.56689-10.27246
	c-2.38232-2.6665-5.42383-3.99707-9.13184-3.99707c-3.7168,0-6.75879,1.33057-9.13916,3.99707
	C188.10938,47.62305,186.92139,51.04785,186.92139,55.23193z"/>
<linearGradient id="SVGID_5_" gradientUnits="userSpaceOnUse" x1="38.59521" y1="167.12646" x2="426.73047" y2="119.10973" gradientTransform="matrix(1 0 0 -1 -20.8999 182.26074)">
	<stop  offset="0" style="stop-color:#5800FF"/>
	<stop  offset="1" style="stop-color:#2560FF"/>
</linearGradient>
<path fill="url(#SVGID_5_)" d="M252.42627,81.58594c-6.05859,0-11.46533-2.56982-16.22168-7.70605
	c-4.7583-5.13623-7.13867-11.50928-7.13867-19.12305c0-7.60889,2.31982-13.84277,6.94971-18.69287
	c4.625-4.85205,10.05029-7.27783,16.26367-7.27783c6.2168,0,11.29346,2.18799,15.22314,6.56348V10.23193h14.26807v70.59277
	h-14.26807V74.0708C263.50879,79.08203,258.48193,81.58594,252.42627,81.58594z M243.4292,55.33057
	c0,4.12012,1.24268,7.49658,3.71387,10.12891c2.47754,2.63086,5.35986,3.94678,8.66113,3.94678
	c3.29639,0,6.10107-1.31592,8.41895-3.94678c2.31494-2.63232,3.47168-6.02734,3.47168-10.18066
	c0-4.15283-1.15674-7.60889-3.47168-10.36963c-2.31787-2.75879-5.15674-4.13721-8.51563-4.13721
	c-3.36572,0-6.24658,1.39404-8.6582,4.18408C244.6377,47.74805,243.4292,51.20557,243.4292,55.33057z"/>
<linearGradient id="SVGID_6_" gradientUnits="userSpaceOnUse" x1="38.16602" y1="163.73975" x2="426.31723" y2="115.72104" gradientTransform="matrix(1 0 0 -1 -20.8999 182.26074)">
	<stop  offset="0" style="stop-color:#5800FF"/>
	<stop  offset="1" style="stop-color:#2560FF"/>
</linearGradient>
<path fill="url(#SVGID_6_)" d="M334.41992,73.40332c-5.77051,5.45801-12.54492,8.18262-20.31201,8.18262
	c-7.77002,0-14.19141-2.3916-19.26221-7.18262c-5.07666-4.78906-7.61523-11.21045-7.61523-19.26514
	s2.5835-14.45996,7.75732-19.21973c5.16455-4.75488,11.27002-7.13379,18.31494-7.13379c7.03418,0,13.01563,2.12549,17.92871,6.37402
	c4.91797,4.24854,7.37598,10.0835,7.37598,17.5083v7.60938h-37.29346c0.44238,2.79004,1.90088,5.07373,4.375,6.84912
	c2.47607,1.77734,5.26611,2.66211,8.37207,2.66211c5.01123,0,9.13477-1.67725,12.36865-5.04102L334.41992,73.40332z
	 M320.72461,43.05566c-1.96826-1.64746-4.36426-2.47461-7.18408-2.47461c-2.82471,0-5.41016,0.85498-7.75781,2.56982
	c-2.34766,1.71143-3.71094,4.02637-4.08887,6.94482h22.45361C323.82568,47.04932,322.68604,44.70459,320.72461,43.05566z"/>
<linearGradient id="SVGID_7_" gradientUnits="userSpaceOnUse" x1="33.98389" y1="129.91748" x2="422.14566" y2="81.89747" gradientTransform="matrix(1 0 0 -1 -20.8999 182.26074)">
	<stop  offset="0" style="stop-color:#5800FF"/>
	<stop  offset="1" style="stop-color:#2560FF"/>
</linearGradient>
<rect fill="url(#SVGID_7_)" width="2.9873" height="101.81982"/>
<linearGradient id="SVGID_8_" gradientUnits="userSpaceOnUse" x1="-73.88086" y1="182.49756" x2="411.89368" y2="75.41823">
	<stop  offset="0" style="stop-color:#5800FF"/>
	<stop  offset="1" style="stop-color:#2560FF"/>
</linearGradient>
<path fill="url(#SVGID_8_)" d="M252.75195,120.23779c0.48682,0,1.02051-0.03027,1.46973-0.1084
	c0.45508-0.07129,0.84961-0.14844,1.14648-0.22559v2.12988c-0.29688,0.14746-0.80078,0.26855-1.38135,0.36328
	c-0.57813,0.09082-1.11572,0.14063-1.57373,0.14063c-3.51611,0-5.28223-1.875-5.28223-5.62305v-10.85254h-2.64746v-0.32324
	l2.60449-2l0.09326-4.20215l2.60059,0.46191v3.70996h5.28955v2.35352h-5.28955v10.73438c0,1.10645,0.28271,1.95996,0.80713,2.55566
	C251.10693,119.94678,251.84863,120.23779,252.75195,120.23779z"/>
<linearGradient id="SVGID_9_" gradientUnits="userSpaceOnUse" x1="-72.79346" y1="187.37354" x2="412.9631" y2="80.29816">
	<stop  offset="0" style="stop-color:#5800FF"/>
	<stop  offset="1" style="stop-color:#2560FF"/>
</linearGradient>
<path fill="url(#SVGID_9_)" d="M264.53711,122.5376c-2.68262,0-4.80176-0.82227-6.35205-2.48242
	c-1.55762-1.65918-2.32959-3.95898-2.32959-6.89941c0-2.96289,0.71826-5.32031,2.15918-7.06738
	c1.44238-1.74609,3.37744-2.62695,5.80762-2.62695c2.27197,0,4.09717,0.76172,5.42139,2.28027
	c1.32471,1.51758,2.00391,3.51855,2.00391,6.00488v1.67188h-12.54541c0.05664,2.34766,0.59521,3.84375,1.61523,4.96289
	c1.02246,1.11719,2.43018,1.69531,4.28857,1.69531c1.94922,0,3.99756-0.38477,5.7583-1.2168v2.48535
	c-0.87988,0.42676-1.85547,0.73047-2.72607,0.91602C266.7749,122.4458,265.76318,122.5376,264.53711,122.5376z M263.7915,105.8042
	c-1.45703,0-2.62354,0.53418-3.48682,1.49902c-0.87402,0.95898-1.37744,2.28809-1.53418,4.05176h9.49268
	c0-1.76367-0.38818-3.16113-1.16016-4.0918C266.32959,106.32666,265.22705,105.8042,263.7915,105.8042z"/>
<linearGradient id="SVGID_10_" gradientUnits="userSpaceOnUse" x1="-73.10693" y1="185.88037" x2="412.62946" y2="78.80945">
	<stop  offset="0" style="stop-color:#5800FF"/>
	<stop  offset="1" style="stop-color:#2560FF"/>
</linearGradient>
<path fill="url(#SVGID_10_)" d="M276.30762,122.23682h-2.70654v-26.1582l2.70654,0.49805V122.23682z"/>
<linearGradient id="SVGID_11_" gradientUnits="userSpaceOnUse" x1="-71.75977" y1="192.11377" x2="414.01199" y2="85.03505">
	<stop  offset="0" style="stop-color:#5800FF"/>
	<stop  offset="1" style="stop-color:#2560FF"/>
</linearGradient>
<path fill="url(#SVGID_11_)" d="M286.94727,122.5376c-2.62793,0-4.66797-0.81543-6.10645-2.46094
	c-1.44336-1.6377-2.1665-3.95703-2.1665-6.95996c0-3.07422,0.72852-5.45605,2.19775-7.13379
	c1.46045-1.67773,3.54736-2.52148,6.25-2.52148c0.87451,0,1.74707,0.10156,2.61914,0.29004
	c0.87451,0.19141,1.55859,0.41309,2.05176,0.6709l-0.84277,2.37109c-0.60498-0.24707-1.26953-0.45508-1.98975-0.61621
	c-0.71729-0.16406-1.35352-0.24023-1.90479-0.24023c-3.68799,0-5.5293,2.38184-5.5293,7.15039
	c0,2.26074,0.44824,3.99707,1.34766,5.20801c0.89746,1.20313,2.23828,1.80859,4.00342,1.80859
	c1.51807,0,3.19727-0.33203,4.66748-0.9873v2.46387C290.36963,122.21631,288.78906,122.5376,286.94727,122.5376z"/>
<linearGradient id="SVGID_12_" gradientUnits="userSpaceOnUse" x1="-71.11621" y1="195.0083" x2="414.64859" y2="87.93111">
	<stop  offset="0" style="stop-color:#5800FF"/>
	<stop  offset="1" style="stop-color:#2560FF"/>
</linearGradient>
<path fill="url(#SVGID_12_)" d="M309.28271,112.98486c0,2.99707-0.74854,5.34277-2.23877,7.02637
	c-1.48877,1.68945-3.5459,2.52637-6.18164,2.52637c-1.62451,0-3.06201-0.38672-4.31982-1.1543
	c-1.25928-0.77246-2.23047-1.88477-2.91553-3.33008c-0.68848-1.43945-1.02686-3.13086-1.02686-5.06836
	c0-2.99902,0.73877-5.33691,2.21582-7.00781c1.48486-1.67188,3.53809-2.51563,6.16504-2.51563
	c2.54004,0,4.56055,0.85938,6.05713,2.57324C308.53418,107.74658,309.28271,110.06396,309.28271,112.98486z M295.44922,112.98486
	c0,2.35352,0.46387,4.14355,1.39111,5.37109c0.93066,1.23438,2.29297,1.85156,4.09033,1.85156
	c1.80615,0,3.16797-0.61035,4.10059-1.84082c0.93359-1.22656,1.40137-3.01855,1.40137-5.38184
	c0-2.33691-0.46777-4.11328-1.40137-5.33008c-0.93262-1.21387-2.30615-1.82227-4.13477-1.82227
	c-1.79834,0-3.15625,0.59863-4.0752,1.7998C295.9082,108.82568,295.44922,110.61475,295.44922,112.98486z"/>
<linearGradient id="SVGID_13_" gradientUnits="userSpaceOnUse" x1="-70.04785" y1="199.87646" x2="415.72302" y2="92.79794">
	<stop  offset="0" style="stop-color:#5800FF"/>
	<stop  offset="1" style="stop-color:#2560FF"/>
</linearGradient>
<path fill="url(#SVGID_13_)" d="M334.48828,122.23682v-12.00488c0-1.46484-0.35547-2.56641-0.97266-3.29688
	c-0.62012-0.73633-1.60352-1.10254-2.90918-1.10254c-1.70508,0-2.93164,0.5-3.75391,1.49609
	c-0.81445,0.99609-1.18506,2.52637-1.18506,4.59863v10.30957h-2.94092v-12.00488c0-1.46484-0.2627-2.56641-0.88916-3.29688
	c-0.61572-0.73633-1.55762-1.10254-2.86865-1.10254c-1.72461,0-3.02734,0.52637-3.8291,1.57031
	c-0.80322,1.04688-1.24121,2.75977-1.24121,5.14746v9.68652h-2.64502V103.7085h2.23584l0.44922,2.64746h0.12988
	c0.51807-0.88281,1.25293-1.6123,2.19482-2.11621c0.94531-0.50391,2.00488-0.73535,3.17285-0.73535
	c2.84131,0,4.69971,1.08887,5.56885,3.14355h0.12988c0.54346-0.88477,1.32813-1.75195,2.35938-2.30957
	c1.02246-0.56055,2.19629-0.85742,3.50684-0.85742c2.05664,0,3.58398,0.52734,4.60938,1.5957
	c1.02246,1.06738,1.52734,2.77051,1.52734,5.12305v12.03711H334.48828z"/>
<g>
	<linearGradient id="SVGID_14_" gradientUnits="userSpaceOnUse" x1="-75.85352" y1="173.54443" x2="409.91943" y2="66.46545">
		<stop  offset="0" style="stop-color:#5800FF"/>
		<stop  offset="1" style="stop-color:#2560FF"/>
	</linearGradient>
	<path fill-rule="evenodd" clip-rule="evenodd" fill="url(#SVGID_14_)" d="M238.50537,102.50244l-17.75488,0.07129l-5.7124-17.27588
		l-5.41602,16.91455l-17.90088,0.10449c6.26074,2.80273,18.85059,8.50098,18.85059,8.50098l-6.62354-4.77539h8.38135
		l2.59717-7.89258c0,0,1.74805,5.29785,2.63672,7.94141l8.2373-0.05664l-6.81006,5.07813l2.56641,7.76074
		c0,0-4.54834-3.27344-6.81006-4.9082l-34.88574,27.33691l34.8501-21.81055l14.75,10.61426c0,0-4.21533-12.60938-5.59814-16.80566
		L238.50537,102.50244z"/>
</g>
<g>
	<linearGradient id="SVGID_15_" gradientUnits="userSpaceOnUse" x1="-75.83105" y1="173.65479" x2="409.94577" y2="66.57494">
		<stop  offset="0" style="stop-color:#5800FF"/>
		<stop  offset="1" style="stop-color:#2560FF"/>
	</linearGradient>
	<path fill-rule="evenodd" clip-rule="evenodd" fill="url(#SVGID_15_)" d="M211.52539,113.81104l-20.68701-9.15234
		c0,0,10.13037,6.07715,15.15869,9.15234l-6.84375,9.44336L211.52539,113.81104z"/>
</g>
<path fill="#999999" d="M47.14063,109.61865c0.59033-0.72852,1.27246-1.31445,2.04688-1.75684
	c0.7749-0.44238,1.66016-0.66406,2.65625-0.66406c0.81104,0,1.54395,0.15527,2.19873,0.46387s1.2124,0.76563,1.67383,1.36914
	c0.46094,0.60449,0.81592,1.35254,1.06494,2.24609c0.24902,0.89648,0.37354,1.9248,0.37354,3.08594
	c0,1.0332-0.13818,1.99414-0.41455,2.88379c-0.27734,0.89063-0.67627,1.66113-1.19678,2.30957
	c-0.52148,0.64941-1.15771,1.16309-1.90869,1.53613c-0.75146,0.37402-1.59717,0.55957-2.53809,0.55957
	c-0.85742,0-1.59277-0.14551-2.20654-0.43555c-0.61328-0.29004-1.15479-0.69336-1.625-1.20996v6.19629h-2.47607v-18.75586h1.48047
	c0.3501,0,0.56689,0.1709,0.6499,0.51172L47.14063,109.61865z M47.26514,118.08252c0.45117,0.60938,0.94531,1.03809,1.47998,1.28711
	c0.53418,0.25,1.13428,0.37402,1.79834,0.37402c1.30957,0,2.31445-0.46582,3.01514-1.39746s1.05127-2.25879,1.05127-3.9834
	c0-0.91309-0.08105-1.69727-0.24219-2.35156s-0.39404-1.19238-0.69824-1.61133s-0.67822-0.72656-1.12061-0.91992
	c-0.44238-0.19434-0.94482-0.29102-1.50781-0.29102c-0.80176,0-1.50488,0.18555-2.10889,0.55371
	c-0.604,0.36914-1.16016,0.88965-1.66699,1.56348V118.08252z"/>
<path fill="#999999" d="M65.92334,107.2251c1.02344,0,1.94531,0.17188,2.7666,0.51172
	c0.8208,0.34082,1.52148,0.82617,2.10205,1.45215c0.58154,0.62793,1.02588,1.38672,1.33496,2.27637
	c0.30908,0.89063,0.46289,1.88281,0.46289,2.98047c0,1.10742-0.15381,2.10156-0.46289,2.9873s-0.75342,1.64258-1.33496,2.26758
	c-0.58057,0.62891-1.28125,1.10938-2.10205,1.44629c-0.82129,0.33594-1.74316,0.50488-2.7666,0.50488
	c-1.03271,0-1.96143-0.16895-2.78711-0.50488c-0.82568-0.33691-1.52783-0.81738-2.10889-1.44629
	c-0.58154-0.625-1.02637-1.38184-1.33545-2.26758c-0.30859-0.88574-0.4624-1.87988-0.4624-2.9873
	c0-1.09766,0.15381-2.08984,0.4624-2.98047c0.30908-0.88965,0.75391-1.64844,1.33545-2.27637
	c0.58105-0.62598,1.2832-1.11133,2.10889-1.45215C63.96191,107.39697,64.89063,107.2251,65.92334,107.2251z M65.92334,119.72998
	c1.3833,0,2.41553-0.46484,3.09863-1.38965c0.68262-0.92773,1.02344-2.2207,1.02344-3.88086
	c0-1.66797-0.34082-2.96875-1.02344-3.90039c-0.68311-0.93164-1.71533-1.39648-3.09863-1.39648
	c-0.70068,0-1.31152,0.11914-1.83301,0.35938c-0.52051,0.23926-0.9541,0.58496-1.2998,1.03711s-0.604,1.00684-0.77393,1.66699
	c-0.1709,0.65918-0.25635,1.40234-0.25635,2.2334c0,1.66016,0.34326,2.95313,1.03027,3.88086
	C63.47803,119.26514,64.52197,119.72998,65.92334,119.72998z"/>
<path fill="#999999" d="M94.54199,107.44678l-4.5376,14.01172h-1.94971c-0.23975,0-0.40625-0.15723-0.49805-0.46973
	l-3.09814-9.50195c-0.07422-0.21387-0.13428-0.42773-0.18018-0.64551c-0.0459-0.21582-0.0918-0.42871-0.13818-0.64258
	c-0.04639,0.21387-0.0918,0.42676-0.13818,0.64258c-0.04639,0.21777-0.10645,0.43555-0.18018,0.6582l-3.15332,9.48926
	c-0.08252,0.3125-0.26758,0.46973-0.55322,0.46973h-1.85352l-4.53662-14.01172h1.93604c0.19385,0,0.35791,0.05078,0.49121,0.15137
	c0.13379,0.10254,0.22363,0.22266,0.27002,0.36035l2.68262,9.01855c0.15723,0.66406,0.28174,1.29199,0.37402,1.87988
	c0.08301-0.30371,0.16797-0.61133,0.25586-0.9248c0.0874-0.31445,0.18213-0.63281,0.28369-0.95508l2.95947-9.07324
	c0.04639-0.13867,0.12695-0.25391,0.24219-0.3457c0.11523-0.09277,0.25635-0.13867,0.42188-0.13867h1.0791
	c0.18457,0,0.33643,0.0459,0.45654,0.13867c0.11963,0.0918,0.20215,0.20703,0.24902,0.3457l2.89063,9.07324
	c0.10156,0.32227,0.19385,0.64063,0.27637,0.95508c0.08301,0.31348,0.16162,0.62109,0.23486,0.9248
	c0.04639-0.30371,0.10449-0.60938,0.17383-0.91895c0.06885-0.30762,0.14453-0.62891,0.22803-0.96094l2.73828-9.01855
	c0.0459-0.14746,0.13379-0.26953,0.2627-0.36621c0.12939-0.09668,0.28174-0.14551,0.45654-0.14551H94.54199z"/>
<path fill="#999999" d="M107.84814,119.49365c-0.30469,0.36914-0.66895,0.68945-1.09277,0.96191
	c-0.42432,0.27246-0.87891,0.49512-1.3623,0.6709c-0.48389,0.1748-0.98438,0.30664-1.50146,0.39355
	c-0.51611,0.08789-1.02832,0.13184-1.53467,0.13184c-0.96875,0-1.86084-0.16504-2.67627-0.49121
	c-0.81641-0.32715-1.52197-0.80566-2.1167-1.43848c-0.59473-0.63086-1.05762-1.41309-1.38965-2.34375
	c-0.33203-0.93164-0.49854-2.00098-0.49854-3.20898c0-0.97852,0.1499-1.8916,0.44971-2.73926s0.73047-1.58301,1.29346-2.20605
	c0.56201-0.62305,1.24902-1.11133,2.06104-1.46582c0.81104-0.35547,1.72363-0.5332,2.73877-0.5332
	c0.83887,0,1.61523,0.14063,2.33008,0.42188c0.71484,0.28223,1.33301,0.6875,1.85352,1.21777
	c0.521,0.5293,0.9292,1.18555,1.22461,1.96387c0.29443,0.7793,0.44238,1.66699,0.44238,2.66211
	c0,0.3877-0.04102,0.64648-0.12451,0.77441c-0.08301,0.12988-0.24023,0.19434-0.47021,0.19434h-9.36426
	c0.02783,0.88574,0.14941,1.6543,0.3667,2.30957c0.21631,0.65527,0.51904,1.20215,0.90625,1.63965
	c0.38721,0.43848,0.84766,0.76563,1.38281,0.98242c0.53467,0.21582,1.13428,0.3252,1.79785,0.3252
	c0.61768,0,1.15039-0.07129,1.59766-0.21484s0.83203-0.29785,1.15479-0.46387c0.32275-0.16504,0.59229-0.32031,0.80908-0.46289
	c0.2168-0.14355,0.40332-0.21484,0.56055-0.21484c0.20313,0,0.35986,0.0791,0.47021,0.23535L107.84814,119.49365z
	 M105.85596,112.92529c0-0.57324-0.08105-1.0957-0.2417-1.57031c-0.16162-0.47559-0.39648-0.88672-0.70508-1.23145
	c-0.31006-0.3457-0.68506-0.61328-1.12744-0.80273c-0.44336-0.1875-0.9458-0.2832-1.50781-0.2832
	c-1.18066,0-2.11426,0.34277-2.80127,1.0293c-0.68701,0.68848-1.11328,1.63965-1.2793,2.8584H105.85596z"/>
<path fill="#999999" d="M113.14551,110.25439c0.44287-0.95898,0.98633-1.70801,1.63232-2.24805
	c0.64502-0.53906,1.43359-0.80859,2.36475-0.80859c0.29541,0,0.57861,0.03223,0.85059,0.09668
	c0.27197,0.06543,0.51416,0.16602,0.72656,0.30371l-0.17969,1.84082c-0.05566,0.23047-0.19385,0.3457-0.41504,0.3457
	c-0.12988,0-0.31836-0.02832-0.56738-0.08301c-0.24902-0.05566-0.53027-0.08301-0.84375-0.08301
	c-0.44287,0-0.83643,0.06445-1.18262,0.19336c-0.3457,0.12988-0.65527,0.31934-0.92627,0.57324
	c-0.27246,0.25488-0.51709,0.56738-0.7334,0.94141c-0.2168,0.37305-0.41309,0.80078-0.5874,1.2793v8.85254h-2.47656v-14.01172
	h1.41113c0.26709,0,0.45166,0.05078,0.55322,0.15137c0.10107,0.10254,0.17041,0.27734,0.20703,0.52637L113.14551,110.25439z"/>
<path fill="#999999" d="M131.40381,119.49365c-0.30518,0.36914-0.66895,0.68945-1.09326,0.96191s-0.87842,0.49512-1.3623,0.6709
	c-0.48438,0.1748-0.98438,0.30664-1.50098,0.39355c-0.5166,0.08789-1.02832,0.13184-1.53467,0.13184
	c-0.96875,0-1.86084-0.16504-2.67725-0.49121c-0.81543-0.32715-1.521-0.80566-2.11621-1.43848
	c-0.59424-0.63086-1.05811-1.41309-1.39014-2.34375c-0.33154-0.93164-0.49756-2.00098-0.49756-3.20898
	c0-0.97852,0.1499-1.8916,0.44922-2.73926s0.73096-1.58301,1.29297-2.20605c0.56299-0.62305,1.25-1.11133,2.06152-1.46582
	c0.81104-0.35547,1.72412-0.5332,2.73877-0.5332c0.83887,0,1.61523,0.14063,2.33057,0.42188
	c0.71436,0.28223,1.33203,0.6875,1.85303,1.21777c0.521,0.5293,0.9292,1.18555,1.22412,1.96387
	c0.29541,0.7793,0.44336,1.66699,0.44336,2.66211c0,0.3877-0.04199,0.64648-0.125,0.77441
	c-0.08301,0.12988-0.23975,0.19434-0.47021,0.19434h-9.36377c0.02686,0.88574,0.14941,1.6543,0.36621,2.30957
	c0.21631,0.65527,0.51855,1.20215,0.90576,1.63965c0.3877,0.43848,0.84863,0.76563,1.3833,0.98242
	c0.53467,0.21582,1.13428,0.3252,1.79834,0.3252c0.61768,0,1.1499-0.07129,1.59766-0.21484
	c0.44727-0.14355,0.83203-0.29785,1.15479-0.46387c0.32275-0.16504,0.59229-0.32031,0.80908-0.46289
	c0.2168-0.14355,0.40332-0.21484,0.56006-0.21484c0.20313,0,0.35986,0.0791,0.47021,0.23535L131.40381,119.49365z
	 M129.41162,112.92529c0-0.57324-0.08105-1.0957-0.24219-1.57031c-0.16113-0.47559-0.39648-0.88672-0.70557-1.23145
	c-0.30908-0.3457-0.68457-0.61328-1.12744-0.80273c-0.44238-0.1875-0.94482-0.2832-1.50732-0.2832
	c-1.18066,0-2.11426,0.34277-2.80078,1.0293c-0.68701,0.68848-1.11328,1.63965-1.2793,2.8584H129.41162z"/>
<path fill="#999999" d="M145.95508,101.0835v20.375h-1.4668c-0.3501,0-0.57178-0.16992-0.66406-0.51172l-0.2207-1.70117
	c-0.6001,0.71875-1.28174,1.29883-2.04736,1.74316c-0.76563,0.44238-1.65039,0.66309-2.65576,0.66309
	c-0.80225,0-1.53076-0.1543-2.18506-0.46289c-0.65527-0.30957-1.2124-0.7627-1.67383-1.3623
	c-0.46094-0.59961-0.81592-1.34668-1.06494-2.24121c-0.24902-0.89355-0.37402-1.92285-0.37402-3.08496
	c0-1.03223,0.13867-1.99414,0.41504-2.88379c0.27734-0.88965,0.67285-1.66113,1.18994-2.31641
	c0.5166-0.65527,1.1499-1.16797,1.90137-1.54199c0.75195-0.37305,1.59766-0.56055,2.53809-0.56055
	c0.85791,0,1.59326,0.14453,2.20703,0.43555c0.6123,0.29102,1.15918,0.69434,1.63818,1.21094v-7.76074H145.95508z
	 M143.49219,110.78076c-0.46045-0.61816-0.95898-1.0498-1.49365-1.29395c-0.53418-0.24414-1.13379-0.36719-1.79785-0.36719
	c-1.30029,0-2.30127,0.46582-3.00146,1.39746c-0.70068,0.93262-1.05127,2.25977-1.05127,3.9834
	c0,0.91406,0.07861,1.69531,0.23535,2.34473c0.15625,0.65137,0.38721,1.18555,0.69141,1.60547s0.67822,0.72559,1.12012,0.91895
	c0.44287,0.19336,0.94531,0.29102,1.50781,0.29102c0.81104,0,1.51904-0.18457,2.12305-0.55371
	c0.604-0.36816,1.15967-0.89063,1.6665-1.5625V110.78076z"/>
<path fill="#999999" d="M158.85938,109.46631c0.58984-0.68262,1.25635-1.22559,1.99854-1.63184
	c0.74268-0.40625,1.59814-0.60938,2.56543-0.60938c0.8208,0,1.56104,0.1582,2.22021,0.4707
	c0.65967,0.3125,1.21973,0.76758,1.68066,1.36133c0.46094,0.5957,0.81348,1.31738,1.05811,2.16602
	c0.24414,0.84766,0.3667,1.80176,0.3667,2.8623c0,1.13477-0.13818,2.16797-0.41504,3.09863
	c-0.27686,0.93164-0.67578,1.72754-1.19629,2.38672c-0.52148,0.6582-1.15479,1.1709-1.90186,1.53516
	c-0.74658,0.36426-1.58594,0.5459-2.51758,0.5459c-0.92236,0-1.69922-0.17285-2.33057-0.51855
	c-0.63184-0.3457-1.18262-0.83691-1.65283-1.47266l-0.12451,1.27148c-0.07422,0.35156-0.28564,0.52637-0.63623,0.52637h-1.59082
	v-20.375h2.47607V109.46631z M158.85938,118.08252c0.45117,0.60938,0.94775,1.03809,1.48682,1.28711
	c0.53955,0.25,1.13184,0.37402,1.77783,0.37402c1.31787,0,2.32813-0.46582,3.02881-1.39746s1.05127-2.31934,1.05127-4.16309
	c0-1.71484-0.31152-2.97656-0.93408-3.7832c-0.62207-0.80664-1.50977-1.21094-2.66211-1.21094
	c-0.80225,0-1.50098,0.18555-2.09521,0.55371c-0.5957,0.36914-1.14648,0.88965-1.65332,1.56348V118.08252z"/>
<path fill="#999999" d="M183.32764,107.44678l-7.81445,18.14746c-0.08301,0.18359-0.18652,0.33203-0.31104,0.44238
	c-0.125,0.11133-0.31641,0.16602-0.57422,0.16602h-1.82568l2.55859-5.56152l-5.78174-13.19434h2.13037
	c0.21191,0,0.37988,0.05273,0.50488,0.15918c0.12451,0.10547,0.20947,0.22461,0.25586,0.35254l3.74854,8.8252
	c0.14746,0.38672,0.27148,0.79199,0.37354,1.2168c0.12891-0.43262,0.26709-0.84375,0.41455-1.23145l3.6377-8.81055
	c0.05518-0.14746,0.15039-0.26953,0.2832-0.36621c0.13379-0.09668,0.28369-0.14551,0.4502-0.14551H183.32764z"/>
</svg>
